.
..............................Site Info...........................

 -   http://www.scenetime.com  *_* 

     We care to share . Join us on  http://www.scenetime.com 

    Be the first to get new release at  http://www.scenetime.com

        Seed back for speed


...................................NFO:.................................................








































          
          
              
              
                    
                    
                    
                    

Porkchop.2010.DVDRiP.XviD-SiC

Poster:
[img]http://img407.imageshack.us/img407/8925/2ef3248a1953f144a99328e.jpg[/img]

IMDB Link: 
http://www.imdb.com/title/tt1720198/

Description: A group of campers are stalked by a deranged redneck with a pig mask.





General
Complete name                    : Porkchop.2010.DVDRiP.XviD-SiC.avi
Format                           : AVI
Format/Info                      : Audio Video Interleave
File size                        : 1.37 GiB
Duration                         : 1h 32mn
Overall bit rate                 : 2 122 Kbps

Video
ID                               : 0
Format                           : MPEG-4 Visual
Format profile                   : Simple@L3
Format settings, BVOP            : 2
Format settings, QPel            : No
Format settings, GMC             : No warppoints
Format settings, Matrix          : Default (H.263)
Muxing mode                      : Packed bitstream
Codec ID                         : XVID
Codec ID/Hint                    : XviD
Duration                         : 1h 32mn
Bit rate                         : 1 859 Kbps
Width                            : 720 pixels
Height                           : 400 pixels
Display aspect ratio             : 16:9
Frame rate                       : 23.976 fps
Color space                      : YUV
Chroma subsampling               : 4:2:0
Bit depth                        : 8 bits
Scan type                        : Progressive
Compression mode                 : Lossy
Bits/(Pixel*Frame)               : 0.269
Stream size                      : 1.20 GiB (88%)
Writing library                  : XviD 1.0.3 (UTC 2004-12-20)

Audio
ID                               : 1
Format                           : AC-3
Format/Info                      : Audio Coding 3
Mode extension                   : CM (complete main)
Codec ID                         : 2000
Duration                         : 1h 32mn
Bit rate mode                    : Constant
Bit rate                         : 256 Kbps
Channel(s)                       : 2 channels
Channel positions                : Front: L R
Sampling rate                    : 48.0 KHz
Bit depth                        : 16 bits
Compression mode                 : Lossy
Stream size                      : 169 MiB (12%)
Alignment                        : Aligned on interleaves
Interleave, duration             : 64 ms (1.53 video frames)
Interleave, preload duration     : 192 ms
Title                            : VTS_01_1 T80 2_0ch 112Kbps DELAY 0ms_new



























Screenshots:
[img]http://img26.imageshack.us/img26/8206/vlcsnap2012012819h38m25.png[/img]
[img]http://img854.imageshack.us/img854/6940/vlcsnap2012012819h38m29.png[/img]
[img]http://img696.imageshack.us/img696/747/vlcsnap2012012819h38m32.png[/img]
[img]http://img268.imageshack.us/img268/462/vlcsnap2012012819h38m36.png[/img]




Note :  

Source: Friend of a friend. 

Enjoy!

Respects to T00NG0D, CM8, Rx, ELEKTRI4KA, PA, YeFsTe, MrRep and everyone in the struggle...